<svg width="310" height="111" viewBox="0 0 310 111" fill="none" xmlns="http://www.w3.org/2000/svg">
<rect width="310" height="111" fill="tomato"/>
<path d="M12.4226 49V31.5455H16.6413V45.5739H23.9027V49H12.4226ZM30.3054 31.5455V49H26.0866V31.5455H30.3054ZM32.9538 49V31.5455H40.2322C41.5391 31.5455 42.6328 31.7301 43.5135 32.0994C44.3999 32.4687 45.0646 32.9858 45.5078 33.6506C45.9567 34.3153 46.1811 35.0852 46.1811 35.9602C46.1811 36.625 46.0419 37.2188 45.7635 37.7415C45.4851 38.2585 45.1016 38.6875 44.6129 39.0284C44.1243 39.3693 43.5589 39.608 42.9169 39.7443V39.9148C43.6214 39.9489 44.272 40.1392 44.8686 40.4858C45.4709 40.8324 45.9538 41.3153 46.3175 41.9347C46.6811 42.5483 46.8629 43.2756 46.8629 44.1165C46.8629 45.054 46.6243 45.892 46.147 46.6307C45.6697 47.3636 44.9794 47.9432 44.076 48.3693C43.1726 48.7898 42.076 49 40.7862 49H32.9538ZM37.1726 45.5994H39.7805C40.6953 45.5994 41.3686 45.4261 41.8004 45.0795C42.2379 44.733 42.4567 44.25 42.4567 43.6307C42.4567 43.1818 42.3516 42.7955 42.1413 42.4716C41.9311 42.142 41.6328 41.8892 41.2464 41.7131C40.8601 41.5312 40.397 41.4403 39.8572 41.4403H37.1726V45.5994ZM37.1726 38.7216H39.5078C39.968 38.7216 40.3771 38.6449 40.7351 38.4915C41.093 38.3381 41.3714 38.1165 41.5703 37.8267C41.7749 37.5369 41.8771 37.1875 41.8771 36.7784C41.8771 36.1932 41.6697 35.733 41.255 35.3977C40.8402 35.0625 40.2805 34.8949 39.576 34.8949H37.1726V38.7216ZM48.8913 49V31.5455H56.1016C57.4084 31.5455 58.5362 31.7812 59.4851 32.2528C60.4396 32.7187 61.1754 33.3892 61.6925 34.2642C62.2095 35.1335 62.468 36.1648 62.468 37.358C62.468 38.5682 62.2038 39.5966 61.6754 40.4432C61.147 41.2841 60.397 41.9261 59.4254 42.3693C58.4538 42.8068 57.3033 43.0256 55.9737 43.0256H51.4141V39.7017H55.1896C55.826 39.7017 56.3572 39.6193 56.7834 39.4545C57.2152 39.2841 57.5419 39.0284 57.7635 38.6875C57.9851 38.3409 58.0959 37.8977 58.0959 37.358C58.0959 36.8182 57.9851 36.3722 57.7635 36.0199C57.5419 35.6619 57.2152 35.3949 56.7834 35.2188C56.3516 35.0369 55.8203 34.946 55.1896 34.946H53.1101V49H48.8913ZM58.718 41.0227L63.0646 49H58.4624L54.201 41.0227H58.718ZM68.5575 49H64.0234L69.9126 31.5455H75.5291L81.4183 49H76.8842L72.7848 35.9432H72.6484L68.5575 49ZM67.9524 42.1307H77.4297V45.3352H67.9524V42.1307ZM83.2976 49V31.5455H90.5078C91.8146 31.5455 92.9425 31.7812 93.8913 32.2528C94.8459 32.7187 95.5817 33.3892 96.0987 34.2642C96.6158 35.1335 96.8743 36.1648 96.8743 37.358C96.8743 38.5682 96.6101 39.5966 96.0817 40.4432C95.5533 41.2841 94.8033 41.9261 93.8317 42.3693C92.8601 42.8068 91.7095 43.0256 90.38 43.0256H85.8203V39.7017H89.5959C90.2322 39.7017 90.7635 39.6193 91.1896 39.4545C91.6214 39.2841 91.9482 39.0284 92.1697 38.6875C92.3913 38.3409 92.5021 37.8977 92.5021 37.358C92.5021 36.8182 92.3913 36.3722 92.1697 36.0199C91.9482 35.6619 91.6214 35.3949 91.1896 35.2188C90.7578 35.0369 90.2266 34.946 89.5959 34.946H87.5163V49H83.2976ZM93.1243 41.0227L97.4709 49H92.8686L88.6072 41.0227H93.1243ZM97.5455 31.5455H102.259L105.949 38.8494H106.102L109.793 31.5455H114.506L108.122 43.1705V49H103.929V43.1705L97.5455 31.5455ZM121.43 31.5455H126.655L131.087 42.3523H131.291L135.723 31.5455H140.947V49H136.839V38.2784H136.695L132.501 48.8892H129.876L125.683 38.2188H125.538V49H121.43V31.5455ZM147.354 49H142.82L148.71 31.5455H154.326L160.215 49H155.681L151.582 35.9432H151.445L147.354 49ZM146.749 42.1307H156.227V45.3352H146.749V42.1307ZM176.95 31.5455V49H173.37L166.424 38.9261H166.313V49H162.094V31.5455H165.725L172.594 41.6023H172.739V31.5455H176.95ZM183.378 49H178.844L184.733 31.5455H190.349L196.239 49H191.705L187.605 35.9432H187.469L183.378 49ZM182.773 42.1307H192.25V45.3352H182.773V42.1307ZM208.752 37.2472C208.656 36.8892 208.513 36.5739 208.326 36.3011C208.138 36.0227 207.908 35.7869 207.636 35.5938C207.363 35.4006 207.05 35.2557 206.698 35.1591C206.346 35.0568 205.96 35.0057 205.539 35.0057C204.692 35.0057 203.96 35.2102 203.34 35.6193C202.727 36.0284 202.252 36.625 201.917 37.4091C201.582 38.1875 201.414 39.1335 201.414 40.2472C201.414 41.3665 201.576 42.321 201.9 43.1108C202.224 43.9006 202.692 44.5028 203.306 44.9176C203.92 45.3324 204.664 45.5398 205.539 45.5398C206.312 45.5398 206.965 45.4148 207.499 45.1648C208.039 44.9091 208.448 44.5483 208.727 44.0824C209.005 43.6165 209.144 43.0682 209.144 42.4375L209.928 42.5312H205.684V39.4545H213.21V41.7642C213.21 43.3267 212.877 44.6648 212.212 45.7784C211.553 46.892 210.644 47.7472 209.485 48.3438C208.332 48.9403 207.005 49.2386 205.505 49.2386C203.84 49.2386 202.377 48.8778 201.116 48.1562C199.854 47.4347 198.871 46.4062 198.167 45.071C197.462 43.7301 197.11 42.1392 197.11 40.2983C197.11 38.8665 197.323 37.5966 197.749 36.4886C198.175 35.375 198.769 34.4318 199.531 33.6591C200.298 32.8864 201.184 32.3011 202.19 31.9034C203.201 31.5057 204.289 31.3068 205.454 31.3068C206.465 31.3068 207.406 31.4517 208.275 31.7415C209.15 32.0312 209.923 32.4403 210.593 32.9688C211.269 33.4972 211.817 34.125 212.238 34.8523C212.658 35.5795 212.92 36.3778 213.022 37.2472H208.752ZM215.696 49V31.5455H227.866V34.9716H219.915V38.5511H227.244V41.9858H219.915V45.5739H227.866V49H215.696ZM230.509 31.5455H235.733L240.165 42.3523H240.369L244.801 31.5455H250.026V49H245.918V38.2784H245.773L241.58 48.8892H238.955L234.761 38.2188H234.616V49H230.509V31.5455ZM252.657 49V31.5455H264.827V34.9716H256.876V38.5511H264.205V41.9858H256.876V45.5739H264.827V49H252.657ZM282.325 31.5455V49H278.745L271.799 38.9261H271.688V49H267.469V31.5455H271.1L277.969 41.6023H278.114V31.5455H282.325ZM284.406 34.9716V31.5455H299.159V34.9716H293.866V49H289.707V34.9716H284.406ZM114.881 65.7784C114.824 65.1534 114.571 64.6676 114.122 64.321C113.679 63.9688 113.045 63.7926 112.222 63.7926C111.676 63.7926 111.222 63.8636 110.858 64.0057C110.494 64.1477 110.222 64.3438 110.04 64.5938C109.858 64.8381 109.764 65.1193 109.759 65.4375C109.747 65.6989 109.798 65.929 109.912 66.1278C110.031 66.3267 110.202 66.5028 110.423 66.6562C110.651 66.804 110.923 66.9347 111.241 67.0483C111.56 67.1619 111.918 67.2614 112.315 67.3466L113.815 67.6875C114.679 67.875 115.44 68.125 116.099 68.4375C116.764 68.75 117.321 69.1222 117.77 69.554C118.224 69.9858 118.568 70.483 118.801 71.0455C119.034 71.608 119.153 72.2386 119.159 72.9375C119.153 74.0398 118.875 74.9858 118.324 75.7756C117.773 76.5653 116.98 77.1705 115.946 77.5909C114.918 78.0114 113.676 78.2216 112.222 78.2216C110.761 78.2216 109.489 78.0028 108.403 77.5653C107.318 77.1278 106.474 76.4631 105.872 75.571C105.27 74.679 104.96 73.5511 104.943 72.1875H108.983C109.017 72.75 109.168 73.2188 109.435 73.5938C109.702 73.9688 110.068 74.2528 110.534 74.446C111.006 74.6392 111.551 74.7358 112.17 74.7358C112.739 74.7358 113.222 74.6591 113.619 74.5057C114.023 74.3523 114.332 74.1392 114.548 73.8665C114.764 73.5937 114.875 73.2812 114.881 72.929C114.875 72.5994 114.773 72.3182 114.574 72.0852C114.375 71.8466 114.068 71.642 113.653 71.4716C113.244 71.2955 112.722 71.1335 112.085 70.9858L110.261 70.5597C108.75 70.2131 107.56 69.6534 106.69 68.8807C105.821 68.1023 105.389 67.0511 105.395 65.7273C105.389 64.6477 105.679 63.7017 106.264 62.8892C106.849 62.0767 107.659 61.4432 108.693 60.9886C109.727 60.5341 110.906 60.3068 112.23 60.3068C113.582 60.3068 114.756 60.5369 115.75 60.9972C116.75 61.4517 117.526 62.0909 118.077 62.9148C118.628 63.7386 118.909 64.6932 118.92 65.7784H114.881ZM120.42 60.5455H125.134L128.824 67.8494H128.977L132.668 60.5455H137.381L130.997 72.1705V78H126.804V72.1705L120.42 60.5455ZM148.584 65.7784C148.527 65.1534 148.274 64.6676 147.825 64.321C147.382 63.9688 146.749 63.7926 145.925 63.7926C145.379 63.7926 144.925 63.8636 144.561 64.0057C144.197 64.1477 143.925 64.3438 143.743 64.5938C143.561 64.8381 143.467 65.1193 143.462 65.4375C143.45 65.6989 143.501 65.929 143.615 66.1278C143.734 66.3267 143.905 66.5028 144.126 66.6562C144.354 66.804 144.626 66.9347 144.945 67.0483C145.263 67.1619 145.621 67.2614 146.018 67.3466L147.518 67.6875C148.382 67.875 149.143 68.125 149.803 68.4375C150.467 68.75 151.024 69.1222 151.473 69.554C151.928 69.9858 152.271 70.483 152.504 71.0455C152.737 71.608 152.857 72.2386 152.862 72.9375C152.857 74.0398 152.578 74.9858 152.027 75.7756C151.476 76.5653 150.683 77.1705 149.649 77.5909C148.621 78.0114 147.379 78.2216 145.925 78.2216C144.464 78.2216 143.192 78.0028 142.107 77.5653C141.021 77.1278 140.178 76.4631 139.575 75.571C138.973 74.679 138.663 73.5511 138.646 72.1875H142.686C142.72 72.75 142.871 73.2188 143.138 73.5938C143.405 73.9688 143.771 74.2528 144.237 74.446C144.709 74.6392 145.254 74.7358 145.874 74.7358C146.442 74.7358 146.925 74.6591 147.322 74.5057C147.726 74.3523 148.036 74.1392 148.251 73.8665C148.467 73.5937 148.578 73.2812 148.584 72.929C148.578 72.5994 148.476 72.3182 148.277 72.0852C148.078 71.8466 147.771 71.642 147.357 71.4716C146.947 71.2955 146.425 71.1335 145.788 70.9858L143.964 70.5597C142.453 70.2131 141.263 69.6534 140.393 68.8807C139.524 68.1023 139.092 67.0511 139.098 65.7273C139.092 64.6477 139.382 63.7017 139.967 62.8892C140.553 62.0767 141.362 61.4432 142.396 60.9886C143.43 60.5341 144.609 60.3068 145.933 60.3068C147.286 60.3068 148.459 60.5369 149.453 60.9972C150.453 61.4517 151.229 62.0909 151.78 62.9148C152.331 63.7386 152.612 64.6932 152.624 65.7784H148.584ZM154.422 63.9716V60.5455H169.175V63.9716H163.882V78H159.723V63.9716H154.422ZM171.235 78V60.5455H183.406V63.9716H175.454V67.5511H182.783V70.9858H175.454V74.5739H183.406V78H171.235ZM186.048 60.5455H191.272L195.704 71.3523H195.908L200.34 60.5455H205.565V78H201.457V67.2784H201.312L197.119 77.8892H194.494L190.3 67.2188H190.156V78H186.048V60.5455Z" fill="#F1F1F1"/>
</svg>
