<svg width="310" height="111" viewBox="0 0 310 111" fill="none" xmlns="http://www.w3.org/2000/svg">
<rect width="310" height="111" fill="white"/>
<path d="M21.9499 49V31.5455H26.1687V45.5739H33.43V49H21.9499ZM46.1737 31.5455H50.3839V42.804C50.3839 44.1051 50.0742 45.2386 49.4549 46.2045C48.8356 47.1648 47.9719 47.9091 46.864 48.4375C45.756 48.9602 44.4691 49.2216 43.0032 49.2216C41.5202 49.2216 40.2248 48.9602 39.1168 48.4375C38.0089 47.9091 37.1481 47.1648 36.5344 46.2045C35.9208 45.2386 35.614 44.1051 35.614 42.804V31.5455H39.8327V42.4375C39.8327 43.0398 39.9634 43.5767 40.2248 44.0483C40.4918 44.5199 40.864 44.8892 41.3413 45.1562C41.8185 45.4233 42.3725 45.5568 43.0032 45.5568C43.6339 45.5568 44.185 45.4233 44.6566 45.1562C45.1339 44.8892 45.506 44.5199 45.7731 44.0483C46.0401 43.5767 46.1737 43.0398 46.1737 42.4375V31.5455ZM67.8832 31.5455V49H64.3036L57.3576 38.9261H57.2468V49H53.0281V31.5455H56.6587L63.5281 41.6023H63.6729V31.5455H67.8832ZM86.3796 37.8693H82.1183C82.0614 37.4318 81.945 37.0369 81.7688 36.6847C81.5927 36.3324 81.3597 36.0312 81.07 35.7812C80.7802 35.5312 80.4364 35.3409 80.0387 35.2102C79.6467 35.0739 79.212 35.0057 78.7347 35.0057C77.8881 35.0057 77.158 35.2131 76.5444 35.6278C75.9364 36.0426 75.4677 36.642 75.1381 37.4261C74.8143 38.2102 74.6523 39.1591 74.6523 40.2727C74.6523 41.4318 74.8171 42.4034 75.1467 43.1875C75.4819 43.9659 75.9506 44.554 76.5529 44.9517C77.1609 45.3437 77.8796 45.5398 78.7092 45.5398C79.1751 45.5398 79.5984 45.4801 79.979 45.3608C80.3654 45.2415 80.7035 45.0682 80.9933 44.8409C81.2887 44.608 81.5302 44.3267 81.7177 43.9972C81.9109 43.6619 82.0444 43.2841 82.1183 42.8636L86.3796 42.8892C86.3058 43.6619 86.0813 44.4233 85.7063 45.1733C85.337 45.9233 84.8285 46.608 84.1808 47.2273C83.533 47.8409 82.7433 48.3295 81.8114 48.6932C80.8853 49.0568 79.8228 49.2386 78.6239 49.2386C77.0444 49.2386 75.6296 48.892 74.3796 48.1989C73.1353 47.5 72.1523 46.483 71.4308 45.1477C70.7092 43.8125 70.3484 42.1875 70.3484 40.2727C70.3484 38.3523 70.7148 36.7244 71.4478 35.3892C72.1808 34.054 73.1722 33.0398 74.4222 32.3466C75.6722 31.6534 77.0728 31.3068 78.6239 31.3068C79.6808 31.3068 80.658 31.4545 81.5558 31.75C82.4535 32.0398 83.2433 32.4659 83.9251 33.0284C84.6069 33.5852 85.1609 34.2699 85.587 35.0824C86.0131 35.8949 86.2773 36.8239 86.3796 37.8693ZM88.7937 49V31.5455H93.0124V38.5511H99.8903V31.5455H104.1V49H99.8903V41.9858H93.0124V49H88.7937ZM111.903 31.5455H117.127L121.559 42.3523H121.764L126.196 31.5455H131.42V49H127.312V38.2784H127.167L122.974 48.8892H120.349L116.156 38.2188H116.011V49H111.903V31.5455ZM137.827 49H133.293L139.182 31.5455H144.799L150.688 49H146.154L142.054 35.9432H141.918L137.827 49ZM137.222 42.1307H146.699V45.3352H137.222V42.1307ZM167.422 31.5455V49H163.843L156.897 38.9261H156.786V49H152.567V31.5455H156.198L163.067 41.6023H163.212V31.5455H167.422ZM173.85 49H169.316L175.206 31.5455H180.822L186.711 49H182.177L178.078 35.9432H177.941L173.85 49ZM173.245 42.1307H182.723V45.3352H173.245V42.1307ZM199.225 37.2472C199.128 36.8892 198.986 36.5739 198.799 36.3011C198.611 36.0227 198.381 35.7869 198.108 35.5938C197.836 35.4006 197.523 35.2557 197.171 35.1591C196.819 35.0568 196.432 35.0057 196.012 35.0057C195.165 35.0057 194.432 35.2102 193.813 35.6193C193.199 36.0284 192.725 36.625 192.39 37.4091C192.054 38.1875 191.887 39.1335 191.887 40.2472C191.887 41.3665 192.049 42.321 192.373 43.1108C192.696 43.9006 193.165 44.5028 193.779 44.9176C194.392 45.3324 195.137 45.5398 196.012 45.5398C196.784 45.5398 197.438 45.4148 197.972 45.1648C198.512 44.9091 198.921 44.5483 199.199 44.0824C199.478 43.6165 199.617 43.0682 199.617 42.4375L200.401 42.5312H196.157V39.4545H203.682V41.7642C203.682 43.3267 203.35 44.6648 202.685 45.7784C202.026 46.892 201.117 47.7472 199.958 48.3438C198.804 48.9403 197.478 49.2386 195.978 49.2386C194.313 49.2386 192.85 48.8778 191.588 48.1562C190.327 47.4347 189.344 46.4062 188.64 45.071C187.935 43.7301 187.583 42.1392 187.583 40.2983C187.583 38.8665 187.796 37.5966 188.222 36.4886C188.648 35.375 189.242 34.4318 190.003 33.6591C190.77 32.8864 191.657 32.3011 192.662 31.9034C193.674 31.5057 194.762 31.3068 195.926 31.3068C196.938 31.3068 197.878 31.4517 198.748 31.7415C199.623 32.0312 200.395 32.4403 201.066 32.9688C201.742 33.4972 202.29 34.125 202.711 34.8523C203.131 35.5795 203.392 36.3778 203.495 37.2472H199.225ZM206.169 49V31.5455H218.339V34.9716H210.387V38.5511H217.717V41.9858H210.387V45.5739H218.339V49H206.169ZM220.981 31.5455H226.206L230.637 42.3523H230.842L235.274 31.5455H240.498V49H236.39V38.2784H236.245L232.052 48.8892H229.427L225.234 38.2188H225.089V49H220.981V31.5455ZM243.13 49V31.5455H255.3V34.9716H247.348V38.5511H254.678V41.9858H247.348V45.5739H255.3V49H243.13ZM272.797 31.5455V49H269.218L262.272 38.9261H262.161V49H257.942V31.5455H261.573L268.442 41.6023H268.587V31.5455H272.797ZM274.879 34.9716V31.5455H289.632V34.9716H284.339V49H280.18V34.9716H274.879ZM114.881 65.7784C114.824 65.1534 114.571 64.6676 114.122 64.321C113.679 63.9688 113.045 63.7926 112.222 63.7926C111.676 63.7926 111.222 63.8636 110.858 64.0057C110.494 64.1477 110.222 64.3438 110.04 64.5938C109.858 64.8381 109.764 65.1193 109.759 65.4375C109.747 65.6989 109.798 65.929 109.912 66.1278C110.031 66.3267 110.202 66.5028 110.423 66.6562C110.651 66.804 110.923 66.9347 111.241 67.0483C111.56 67.1619 111.918 67.2614 112.315 67.3466L113.815 67.6875C114.679 67.875 115.44 68.125 116.099 68.4375C116.764 68.75 117.321 69.1222 117.77 69.554C118.224 69.9858 118.568 70.483 118.801 71.0455C119.034 71.608 119.153 72.2386 119.159 72.9375C119.153 74.0398 118.875 74.9858 118.324 75.7756C117.773 76.5653 116.98 77.1705 115.946 77.5909C114.918 78.0114 113.676 78.2216 112.222 78.2216C110.761 78.2216 109.489 78.0028 108.403 77.5653C107.318 77.1278 106.474 76.4631 105.872 75.571C105.27 74.679 104.96 73.5511 104.943 72.1875H108.983C109.017 72.75 109.168 73.2188 109.435 73.5938C109.702 73.9688 110.068 74.2528 110.534 74.446C111.006 74.6392 111.551 74.7358 112.17 74.7358C112.739 74.7358 113.222 74.6591 113.619 74.5057C114.023 74.3523 114.332 74.1392 114.548 73.8665C114.764 73.5937 114.875 73.2812 114.881 72.929C114.875 72.5994 114.773 72.3182 114.574 72.0852C114.375 71.8466 114.068 71.642 113.653 71.4716C113.244 71.2955 112.722 71.1335 112.085 70.9858L110.261 70.5597C108.75 70.2131 107.56 69.6534 106.69 68.8807C105.821 68.1023 105.389 67.0511 105.395 65.7273C105.389 64.6477 105.679 63.7017 106.264 62.8892C106.849 62.0767 107.659 61.4432 108.693 60.9886C109.727 60.5341 110.906 60.3068 112.23 60.3068C113.582 60.3068 114.756 60.5369 115.75 60.9972C116.75 61.4517 117.526 62.0909 118.077 62.9148C118.628 63.7386 118.909 64.6932 118.92 65.7784H114.881ZM120.42 60.5455H125.134L128.824 67.8494H128.977L132.668 60.5455H137.381L130.997 72.1705V78H126.804V72.1705L120.42 60.5455ZM148.584 65.7784C148.527 65.1534 148.274 64.6676 147.825 64.321C147.382 63.9688 146.749 63.7926 145.925 63.7926C145.379 63.7926 144.925 63.8636 144.561 64.0057C144.197 64.1477 143.925 64.3438 143.743 64.5938C143.561 64.8381 143.467 65.1193 143.462 65.4375C143.45 65.6989 143.501 65.929 143.615 66.1278C143.734 66.3267 143.905 66.5028 144.126 66.6562C144.354 66.804 144.626 66.9347 144.945 67.0483C145.263 67.1619 145.621 67.2614 146.018 67.3466L147.518 67.6875C148.382 67.875 149.143 68.125 149.803 68.4375C150.467 68.75 151.024 69.1222 151.473 69.554C151.928 69.9858 152.271 70.483 152.504 71.0455C152.737 71.608 152.857 72.2386 152.862 72.9375C152.857 74.0398 152.578 74.9858 152.027 75.7756C151.476 76.5653 150.683 77.1705 149.649 77.5909C148.621 78.0114 147.379 78.2216 145.925 78.2216C144.464 78.2216 143.192 78.0028 142.107 77.5653C141.021 77.1278 140.178 76.4631 139.575 75.571C138.973 74.679 138.663 73.5511 138.646 72.1875H142.686C142.72 72.75 142.871 73.2188 143.138 73.5938C143.405 73.9688 143.771 74.2528 144.237 74.446C144.709 74.6392 145.254 74.7358 145.874 74.7358C146.442 74.7358 146.925 74.6591 147.322 74.5057C147.726 74.3523 148.036 74.1392 148.251 73.8665C148.467 73.5937 148.578 73.2812 148.584 72.929C148.578 72.5994 148.476 72.3182 148.277 72.0852C148.078 71.8466 147.771 71.642 147.357 71.4716C146.947 71.2955 146.425 71.1335 145.788 70.9858L143.964 70.5597C142.453 70.2131 141.263 69.6534 140.393 68.8807C139.524 68.1023 139.092 67.0511 139.098 65.7273C139.092 64.6477 139.382 63.7017 139.967 62.8892C140.553 62.0767 141.362 61.4432 142.396 60.9886C143.43 60.5341 144.609 60.3068 145.933 60.3068C147.286 60.3068 148.459 60.5369 149.453 60.9972C150.453 61.4517 151.229 62.0909 151.78 62.9148C152.331 63.7386 152.612 64.6932 152.624 65.7784H148.584ZM154.422 63.9716V60.5455H169.175V63.9716H163.882V78H159.723V63.9716H154.422ZM171.235 78V60.5455H183.406V63.9716H175.454V67.5511H182.783V70.9858H175.454V74.5739H183.406V78H171.235ZM186.048 60.5455H191.272L195.704 71.3523H195.908L200.34 60.5455H205.565V78H201.457V67.2784H201.312L197.119 77.8892H194.494L190.3 67.2188H190.156V78H186.048V60.5455Z" fill="black"/>
</svg>
