<svg width="310" height="222" viewBox="0 0 310 222" fill="none" xmlns="http://www.w3.org/2000/svg">
<rect width="310" height="222" fill="#ffffff"/>
<path d="M59.6602 89.9716V86.5455H74.413V89.9716H69.1204V104H64.9613V89.9716H59.6602ZM92.1509 95.2727C92.1509 97.1932 91.7816 98.821 91.043 100.156C90.3043 101.491 89.3043 102.506 88.043 103.199C86.7873 103.892 85.3782 104.239 83.8157 104.239C82.2475 104.239 80.8356 103.889 79.5799 103.19C78.3242 102.491 77.3271 101.477 76.5884 100.148C75.8555 98.8125 75.489 97.1875 75.489 95.2727C75.489 93.3523 75.8555 91.7244 76.5884 90.3892C77.3271 89.054 78.3242 88.0398 79.5799 87.3466C80.8356 86.6534 82.2475 86.3068 83.8157 86.3068C85.3782 86.3068 86.7873 86.6534 88.043 87.3466C89.3043 88.0398 90.3043 89.054 91.043 90.3892C91.7816 91.7244 92.1509 93.3523 92.1509 95.2727ZM87.8384 95.2727C87.8384 94.1364 87.6765 93.1761 87.3526 92.392C87.0344 91.608 86.5742 91.0142 85.9719 90.6108C85.3754 90.2074 84.6566 90.0057 83.8157 90.0057C82.9805 90.0057 82.2617 90.2074 81.6594 90.6108C81.0572 91.0142 80.5941 91.608 80.2702 92.392C79.9521 93.1761 79.793 94.1364 79.793 95.2727C79.793 96.4091 79.9521 97.3693 80.2702 98.1534C80.5941 98.9375 81.0572 99.5312 81.6594 99.9347C82.2617 100.338 82.9805 100.54 83.8157 100.54C84.6566 100.54 85.3754 100.338 85.9719 99.9347C86.5742 99.5312 87.0344 98.9375 87.3526 98.1534C87.6765 97.3693 87.8384 96.4091 87.8384 95.2727ZM102.992 93.6705V96.875H94.9123V93.6705H102.992ZM112.386 104H105.934V86.5455H112.377C114.156 86.5455 115.687 86.8949 116.971 87.5938C118.261 88.2869 119.255 89.2869 119.954 90.5938C120.653 91.8949 121.002 93.4517 121.002 95.2642C121.002 97.0824 120.653 98.6449 119.954 99.9517C119.261 101.259 118.27 102.261 116.98 102.96C115.69 103.653 114.159 104 112.386 104ZM110.153 100.403H112.224C113.201 100.403 114.028 100.239 114.704 99.9091C115.386 99.5739 115.9 99.0312 116.247 98.2812C116.599 97.5256 116.775 96.5199 116.775 95.2642C116.775 94.0085 116.599 93.0085 116.247 92.2642C115.895 91.5142 115.375 90.9744 114.687 90.6449C114.005 90.3097 113.164 90.142 112.164 90.142H110.153V100.403ZM139.94 95.2727C139.94 97.1932 139.571 98.821 138.832 100.156C138.093 101.491 137.093 102.506 135.832 103.199C134.576 103.892 133.167 104.239 131.605 104.239C130.037 104.239 128.625 103.889 127.369 103.19C126.113 102.491 125.116 101.477 124.377 100.148C123.645 98.8125 123.278 97.1875 123.278 95.2727C123.278 93.3523 123.645 91.7244 124.377 90.3892C125.116 89.054 126.113 88.0398 127.369 87.3466C128.625 86.6534 130.037 86.3068 131.605 86.3068C133.167 86.3068 134.576 86.6534 135.832 87.3466C137.093 88.0398 138.093 89.054 138.832 90.3892C139.571 91.7244 139.94 93.3523 139.94 95.2727ZM135.627 95.2727C135.627 94.1364 135.466 93.1761 135.142 92.392C134.824 91.608 134.363 91.0142 133.761 90.6108C133.164 90.2074 132.446 90.0057 131.605 90.0057C130.77 90.0057 130.051 90.2074 129.449 90.6108C128.846 91.0142 128.383 91.608 128.059 92.392C127.741 93.1761 127.582 94.1364 127.582 95.2727C127.582 96.4091 127.741 97.3693 128.059 98.1534C128.383 98.9375 128.846 99.5312 129.449 99.9347C130.051 100.338 130.77 100.54 131.605 100.54C132.446 100.54 133.164 100.338 133.761 99.9347C134.363 99.5312 134.824 98.9375 135.142 98.1534C135.466 97.3693 135.627 96.4091 135.627 95.2727ZM151.335 104H146.801L152.69 86.5455H158.306L164.196 104H159.662L155.562 90.9432H155.426L151.335 104ZM150.73 97.1307H160.207V100.335H150.73V97.1307ZM166.075 104V86.5455H173.285C174.592 86.5455 175.72 86.8011 176.669 87.3125C177.623 87.8182 178.359 88.5256 178.876 89.4347C179.393 90.3381 179.652 91.3892 179.652 92.5881C179.652 93.7926 179.387 94.8466 178.859 95.75C178.336 96.6477 177.589 97.3437 176.618 97.8381C175.646 98.3324 174.493 98.5795 173.157 98.5795H168.708V95.2557H172.373C173.01 95.2557 173.541 95.1449 173.967 94.9233C174.399 94.7017 174.725 94.392 174.947 93.9943C175.169 93.5909 175.279 93.1222 175.279 92.5881C175.279 92.0483 175.169 91.5824 174.947 91.1903C174.725 90.7926 174.399 90.4858 173.967 90.2699C173.535 90.054 173.004 89.946 172.373 89.946H170.294V104H166.075ZM181.731 104V86.5455H188.941C190.248 86.5455 191.376 86.8011 192.325 87.3125C193.279 87.8182 194.015 88.5256 194.532 89.4347C195.049 90.3381 195.308 91.3892 195.308 92.5881C195.308 93.7926 195.044 94.8466 194.515 95.75C193.993 96.6477 193.245 97.3437 192.274 97.8381C191.302 98.3324 190.149 98.5795 188.814 98.5795H184.365V95.2557H188.029C188.666 95.2557 189.197 95.1449 189.623 94.9233C190.055 94.7017 190.382 94.392 190.603 93.9943C190.825 93.5909 190.936 93.1222 190.936 92.5881C190.936 92.0483 190.825 91.5824 190.603 91.1903C190.382 90.7926 190.055 90.4858 189.623 90.2699C189.191 90.054 188.66 89.946 188.029 89.946H185.95V104H181.731ZM202.544 104V86.5455H214.458V89.9716H206.762V93.5511H213.7V96.9858H206.762V104H202.544ZM233.057 95.2727C233.057 97.1932 232.688 98.821 231.949 100.156C231.211 101.491 230.211 102.506 228.949 103.199C227.694 103.892 226.284 104.239 224.722 104.239C223.154 104.239 221.742 103.889 220.486 103.19C219.23 102.491 218.233 101.477 217.495 100.148C216.762 98.8125 216.395 97.1875 216.395 95.2727C216.395 93.3523 216.762 91.7244 217.495 90.3892C218.233 89.054 219.23 88.0398 220.486 87.3466C221.742 86.6534 223.154 86.3068 224.722 86.3068C226.284 86.3068 227.694 86.6534 228.949 87.3466C230.211 88.0398 231.211 89.054 231.949 90.3892C232.688 91.7244 233.057 93.3523 233.057 95.2727ZM228.745 95.2727C228.745 94.1364 228.583 93.1761 228.259 92.392C227.941 91.608 227.48 91.0142 226.878 90.6108C226.282 90.2074 225.563 90.0057 224.722 90.0057C223.887 90.0057 223.168 90.2074 222.566 90.6108C221.963 91.0142 221.5 91.608 221.176 92.392C220.858 93.1761 220.699 94.1364 220.699 95.2727C220.699 96.4091 220.858 97.3693 221.176 98.1534C221.5 98.9375 221.963 99.5312 222.566 99.9347C223.168 100.338 223.887 100.54 224.722 100.54C225.563 100.54 226.282 100.338 226.878 99.9347C227.48 99.5312 227.941 98.9375 228.259 98.1534C228.583 97.3693 228.745 96.4091 228.745 95.2727ZM235.52 104V86.5455H242.73C244.037 86.5455 245.165 86.7812 246.114 87.2528C247.069 87.7187 247.804 88.3892 248.321 89.2642C248.838 90.1335 249.097 91.1648 249.097 92.358C249.097 93.5682 248.833 94.5966 248.304 95.4432C247.776 96.2841 247.026 96.9261 246.054 97.3693C245.083 97.8068 243.932 98.0256 242.603 98.0256H238.043V94.7017H241.819C242.455 94.7017 242.986 94.6193 243.412 94.4545C243.844 94.2841 244.171 94.0284 244.392 93.6875C244.614 93.3409 244.725 92.8977 244.725 92.358C244.725 91.8182 244.614 91.3722 244.392 91.0199C244.171 90.6619 243.844 90.3949 243.412 90.2188C242.98 90.0369 242.449 89.946 241.819 89.946H239.739V104H235.52ZM245.347 96.0227L249.694 104H245.091L240.83 96.0227H245.347ZM103.206 133H98.6719L104.561 115.545H110.178L116.067 133H111.533L107.433 119.943H107.297L103.206 133ZM102.601 126.131H112.078V129.335H102.601V126.131ZM132.801 115.545V133H129.222L122.276 122.926H122.165V133H117.946V115.545H121.577L128.446 125.602H128.591V115.545H132.801ZM141.906 133H135.454V115.545H141.897C143.675 115.545 145.207 115.895 146.491 116.594C147.781 117.287 148.775 118.287 149.474 119.594C150.173 120.895 150.522 122.452 150.522 124.264C150.522 126.082 150.173 127.645 149.474 128.952C148.781 130.259 147.789 131.261 146.499 131.96C145.21 132.653 143.678 133 141.906 133ZM139.673 129.403H141.744C142.721 129.403 143.548 129.239 144.224 128.909C144.906 128.574 145.42 128.031 145.766 127.281C146.119 126.526 146.295 125.52 146.295 124.264C146.295 123.009 146.119 122.009 145.766 121.264C145.414 120.514 144.894 119.974 144.207 119.645C143.525 119.31 142.684 119.142 141.684 119.142H139.673V129.403ZM152.985 133V115.545H160.195C161.502 115.545 162.63 115.781 163.579 116.253C164.533 116.719 165.269 117.389 165.786 118.264C166.303 119.134 166.562 120.165 166.562 121.358C166.562 122.568 166.298 123.597 165.769 124.443C165.241 125.284 164.491 125.926 163.519 126.369C162.548 126.807 161.397 127.026 160.067 127.026H155.508V123.702H159.283C159.92 123.702 160.451 123.619 160.877 123.455C161.309 123.284 161.636 123.028 161.857 122.688C162.079 122.341 162.19 121.898 162.19 121.358C162.19 120.818 162.079 120.372 161.857 120.02C161.636 119.662 161.309 119.395 160.877 119.219C160.445 119.037 159.914 118.946 159.283 118.946H157.204V133H152.985ZM162.812 125.023L167.158 133H162.556L158.295 125.023H162.812ZM185.35 124.273C185.35 126.193 184.981 127.821 184.242 129.156C183.504 130.491 182.504 131.506 181.242 132.199C179.987 132.892 178.577 133.239 177.015 133.239C175.447 133.239 174.035 132.889 172.779 132.19C171.523 131.491 170.526 130.477 169.788 129.148C169.055 127.812 168.688 126.187 168.688 124.273C168.688 122.352 169.055 120.724 169.788 119.389C170.526 118.054 171.523 117.04 172.779 116.347C174.035 115.653 175.447 115.307 177.015 115.307C178.577 115.307 179.987 115.653 181.242 116.347C182.504 117.04 183.504 118.054 184.242 119.389C184.981 120.724 185.35 122.352 185.35 124.273ZM181.038 124.273C181.038 123.136 180.876 122.176 180.552 121.392C180.234 120.608 179.773 120.014 179.171 119.611C178.575 119.207 177.856 119.006 177.015 119.006C176.18 119.006 175.461 119.207 174.859 119.611C174.256 120.014 173.793 120.608 173.469 121.392C173.151 122.176 172.992 123.136 172.992 124.273C172.992 125.409 173.151 126.369 173.469 127.153C173.793 127.937 174.256 128.531 174.859 128.935C175.461 129.338 176.18 129.54 177.015 129.54C177.856 129.54 178.575 129.338 179.171 128.935C179.773 128.531 180.234 127.937 180.552 127.153C180.876 126.369 181.038 125.409 181.038 124.273ZM192.032 115.545V133H187.813V115.545H192.032ZM201.132 133H194.68V115.545H201.124C202.902 115.545 204.433 115.895 205.717 116.594C207.007 117.287 208.001 118.287 208.7 119.594C209.399 120.895 209.749 122.452 209.749 124.264C209.749 126.082 209.399 127.645 208.7 128.952C208.007 130.259 207.016 131.261 205.726 131.96C204.436 132.653 202.905 133 201.132 133ZM198.899 129.403H200.97C201.947 129.403 202.774 129.239 203.45 128.909C204.132 128.574 204.646 128.031 204.993 127.281C205.345 126.526 205.521 125.52 205.521 124.264C205.521 123.009 205.345 122.009 204.993 121.264C204.641 120.514 204.121 119.974 203.433 119.645C202.751 119.31 201.911 119.142 200.911 119.142H198.899V129.403Z" fill="black"/>
</svg>
