<svg width="310" height="111" viewBox="0 0 310 111" fill="none" xmlns="http://www.w3.org/2000/svg">
<rect width="310" height="111" fill="#bluewhite"/>
<path d="M59.6602 34.9716V31.5455H74.413V34.9716H69.1204V49H64.9613V34.9716H59.6602ZM92.1509 40.2727C92.1509 42.1932 91.7816 43.821 91.043 45.1562C90.3043 46.4915 89.3043 47.5057 88.043 48.1989C86.7873 48.892 85.3782 49.2386 83.8157 49.2386C82.2475 49.2386 80.8356 48.8892 79.5799 48.1903C78.3242 47.4915 77.3271 46.4773 76.5884 45.1477C75.8555 43.8125 75.489 42.1875 75.489 40.2727C75.489 38.3523 75.8555 36.7244 76.5884 35.3892C77.3271 34.054 78.3242 33.0398 79.5799 32.3466C80.8356 31.6534 82.2475 31.3068 83.8157 31.3068C85.3782 31.3068 86.7873 31.6534 88.043 32.3466C89.3043 33.0398 90.3043 34.054 91.043 35.3892C91.7816 36.7244 92.1509 38.3523 92.1509 40.2727ZM87.8384 40.2727C87.8384 39.1364 87.6765 38.1761 87.3526 37.392C87.0344 36.608 86.5742 36.0142 85.9719 35.6108C85.3754 35.2074 84.6566 35.0057 83.8157 35.0057C82.9805 35.0057 82.2617 35.2074 81.6594 35.6108C81.0572 36.0142 80.5941 36.608 80.2702 37.392C79.9521 38.1761 79.793 39.1364 79.793 40.2727C79.793 41.4091 79.9521 42.3693 80.2702 43.1534C80.5941 43.9375 81.0572 44.5312 81.6594 44.9347C82.2617 45.3381 82.9805 45.5398 83.8157 45.5398C84.6566 45.5398 85.3754 45.3381 85.9719 44.9347C86.5742 44.5312 87.0344 43.9375 87.3526 43.1534C87.6765 42.3693 87.8384 41.4091 87.8384 40.2727ZM102.992 38.6705V41.875H94.9123V38.6705H102.992ZM112.386 49H105.934V31.5455H112.377C114.156 31.5455 115.687 31.8949 116.971 32.5938C118.261 33.2869 119.255 34.2869 119.954 35.5938C120.653 36.8949 121.002 38.4517 121.002 40.2642C121.002 42.0824 120.653 43.6449 119.954 44.9517C119.261 46.2585 118.27 47.2614 116.98 47.9602C115.69 48.6534 114.159 49 112.386 49ZM110.153 45.4034H112.224C113.201 45.4034 114.028 45.2386 114.704 44.9091C115.386 44.5739 115.9 44.0312 116.247 43.2812C116.599 42.5256 116.775 41.5199 116.775 40.2642C116.775 39.0085 116.599 38.0085 116.247 37.2642C115.895 36.5142 115.375 35.9744 114.687 35.6449C114.005 35.3097 113.164 35.142 112.164 35.142H110.153V45.4034ZM139.94 40.2727C139.94 42.1932 139.571 43.821 138.832 45.1562C138.093 46.4915 137.093 47.5057 135.832 48.1989C134.576 48.892 133.167 49.2386 131.605 49.2386C130.037 49.2386 128.625 48.8892 127.369 48.1903C126.113 47.4915 125.116 46.4773 124.377 45.1477C123.645 43.8125 123.278 42.1875 123.278 40.2727C123.278 38.3523 123.645 36.7244 124.377 35.3892C125.116 34.054 126.113 33.0398 127.369 32.3466C128.625 31.6534 130.037 31.3068 131.605 31.3068C133.167 31.3068 134.576 31.6534 135.832 32.3466C137.093 33.0398 138.093 34.054 138.832 35.3892C139.571 36.7244 139.94 38.3523 139.94 40.2727ZM135.627 40.2727C135.627 39.1364 135.466 38.1761 135.142 37.392C134.824 36.608 134.363 36.0142 133.761 35.6108C133.164 35.2074 132.446 35.0057 131.605 35.0057C130.77 35.0057 130.051 35.2074 129.449 35.6108C128.846 36.0142 128.383 36.608 128.059 37.392C127.741 38.1761 127.582 39.1364 127.582 40.2727C127.582 41.4091 127.741 42.3693 128.059 43.1534C128.383 43.9375 128.846 44.5312 129.449 44.9347C130.051 45.3381 130.77 45.5398 131.605 45.5398C132.446 45.5398 133.164 45.3381 133.761 44.9347C134.363 44.5312 134.824 43.9375 135.142 43.1534C135.466 42.3693 135.627 41.4091 135.627 40.2727ZM151.335 49H146.801L152.69 31.5455H158.306L164.196 49H159.662L155.562 35.9432H155.426L151.335 49ZM150.73 42.1307H160.207V45.3352H150.73V42.1307ZM166.075 49V31.5455H173.285C174.592 31.5455 175.72 31.8011 176.669 32.3125C177.623 32.8182 178.359 33.5256 178.876 34.4347C179.393 35.3381 179.652 36.3892 179.652 37.5881C179.652 38.7926 179.387 39.8466 178.859 40.75C178.336 41.6477 177.589 42.3437 176.618 42.8381C175.646 43.3324 174.493 43.5795 173.157 43.5795H168.708V40.2557H172.373C173.01 40.2557 173.541 40.1449 173.967 39.9233C174.399 39.7017 174.725 39.392 174.947 38.9943C175.169 38.5909 175.279 38.1222 175.279 37.5881C175.279 37.0483 175.169 36.5824 174.947 36.1903C174.725 35.7926 174.399 35.4858 173.967 35.2699C173.535 35.054 173.004 34.946 172.373 34.946H170.294V49H166.075ZM181.731 49V31.5455H188.941C190.248 31.5455 191.376 31.8011 192.325 32.3125C193.279 32.8182 194.015 33.5256 194.532 34.4347C195.049 35.3381 195.308 36.3892 195.308 37.5881C195.308 38.7926 195.044 39.8466 194.515 40.75C193.993 41.6477 193.245 42.3437 192.274 42.8381C191.302 43.3324 190.149 43.5795 188.814 43.5795H184.365V40.2557H188.029C188.666 40.2557 189.197 40.1449 189.623 39.9233C190.055 39.7017 190.382 39.392 190.603 38.9943C190.825 38.5909 190.936 38.1222 190.936 37.5881C190.936 37.0483 190.825 36.5824 190.603 36.1903C190.382 35.7926 190.055 35.4858 189.623 35.2699C189.191 35.054 188.66 34.946 188.029 34.946H185.95V49H181.731ZM202.544 49V31.5455H214.458V34.9716H206.762V38.5511H213.7V41.9858H206.762V49H202.544ZM233.057 40.2727C233.057 42.1932 232.688 43.821 231.949 45.1562C231.211 46.4915 230.211 47.5057 228.949 48.1989C227.694 48.892 226.284 49.2386 224.722 49.2386C223.154 49.2386 221.742 48.8892 220.486 48.1903C219.23 47.4915 218.233 46.4773 217.495 45.1477C216.762 43.8125 216.395 42.1875 216.395 40.2727C216.395 38.3523 216.762 36.7244 217.495 35.3892C218.233 34.054 219.23 33.0398 220.486 32.3466C221.742 31.6534 223.154 31.3068 224.722 31.3068C226.284 31.3068 227.694 31.6534 228.949 32.3466C230.211 33.0398 231.211 34.054 231.949 35.3892C232.688 36.7244 233.057 38.3523 233.057 40.2727ZM228.745 40.2727C228.745 39.1364 228.583 38.1761 228.259 37.392C227.941 36.608 227.48 36.0142 226.878 35.6108C226.282 35.2074 225.563 35.0057 224.722 35.0057C223.887 35.0057 223.168 35.2074 222.566 35.6108C221.963 36.0142 221.5 36.608 221.176 37.392C220.858 38.1761 220.699 39.1364 220.699 40.2727C220.699 41.4091 220.858 42.3693 221.176 43.1534C221.5 43.9375 221.963 44.5312 222.566 44.9347C223.168 45.3381 223.887 45.5398 224.722 45.5398C225.563 45.5398 226.282 45.3381 226.878 44.9347C227.48 44.5312 227.941 43.9375 228.259 43.1534C228.583 42.3693 228.745 41.4091 228.745 40.2727ZM235.52 49V31.5455H242.73C244.037 31.5455 245.165 31.7812 246.114 32.2528C247.069 32.7187 247.804 33.3892 248.321 34.2642C248.838 35.1335 249.097 36.1648 249.097 37.358C249.097 38.5682 248.833 39.5966 248.304 40.4432C247.776 41.2841 247.026 41.9261 246.054 42.3693C245.083 42.8068 243.932 43.0256 242.603 43.0256H238.043V39.7017H241.819C242.455 39.7017 242.986 39.6193 243.412 39.4545C243.844 39.2841 244.171 39.0284 244.392 38.6875C244.614 38.3409 244.725 37.8977 244.725 37.358C244.725 36.8182 244.614 36.3722 244.392 36.0199C244.171 35.6619 243.844 35.3949 243.412 35.2188C242.98 35.0369 242.449 34.946 241.819 34.946H239.739V49H235.52ZM245.347 41.0227L249.694 49H245.091L240.83 41.0227H245.347ZM103.206 78H98.6719L104.561 60.5455H110.178L116.067 78H111.533L107.433 64.9432H107.297L103.206 78ZM102.601 71.1307H112.078V74.3352H102.601V71.1307ZM132.801 60.5455V78H129.222L122.276 67.9261H122.165V78H117.946V60.5455H121.577L128.446 70.6023H128.591V60.5455H132.801ZM141.906 78H135.454V60.5455H141.897C143.675 60.5455 145.207 60.8949 146.491 61.5938C147.781 62.2869 148.775 63.2869 149.474 64.5938C150.173 65.8949 150.522 67.4517 150.522 69.2642C150.522 71.0824 150.173 72.6449 149.474 73.9517C148.781 75.2585 147.789 76.2614 146.499 76.9602C145.21 77.6534 143.678 78 141.906 78ZM139.673 74.4034H141.744C142.721 74.4034 143.548 74.2386 144.224 73.9091C144.906 73.5739 145.42 73.0312 145.766 72.2812C146.119 71.5256 146.295 70.5199 146.295 69.2642C146.295 68.0085 146.119 67.0085 145.766 66.2642C145.414 65.5142 144.894 64.9744 144.207 64.6449C143.525 64.3097 142.684 64.142 141.684 64.142H139.673V74.4034ZM152.985 78V60.5455H160.195C161.502 60.5455 162.63 60.7812 163.579 61.2528C164.533 61.7187 165.269 62.3892 165.786 63.2642C166.303 64.1335 166.562 65.1648 166.562 66.358C166.562 67.5682 166.298 68.5966 165.769 69.4432C165.241 70.2841 164.491 70.9261 163.519 71.3693C162.548 71.8068 161.397 72.0256 160.067 72.0256H155.508V68.7017H159.283C159.92 68.7017 160.451 68.6193 160.877 68.4545C161.309 68.2841 161.636 68.0284 161.857 67.6875C162.079 67.3409 162.19 66.8977 162.19 66.358C162.19 65.8182 162.079 65.3722 161.857 65.0199C161.636 64.6619 161.309 64.3949 160.877 64.2188C160.445 64.0369 159.914 63.946 159.283 63.946H157.204V78H152.985ZM162.812 70.0227L167.158 78H162.556L158.295 70.0227H162.812ZM185.35 69.2727C185.35 71.1932 184.981 72.821 184.242 74.1562C183.504 75.4915 182.504 76.5057 181.242 77.1989C179.987 77.892 178.577 78.2386 177.015 78.2386C175.447 78.2386 174.035 77.8892 172.779 77.1903C171.523 76.4915 170.526 75.4773 169.788 74.1477C169.055 72.8125 168.688 71.1875 168.688 69.2727C168.688 67.3523 169.055 65.7244 169.788 64.3892C170.526 63.054 171.523 62.0398 172.779 61.3466C174.035 60.6534 175.447 60.3068 177.015 60.3068C178.577 60.3068 179.987 60.6534 181.242 61.3466C182.504 62.0398 183.504 63.054 184.242 64.3892C184.981 65.7244 185.35 67.3523 185.35 69.2727ZM181.038 69.2727C181.038 68.1364 180.876 67.1761 180.552 66.392C180.234 65.608 179.773 65.0142 179.171 64.6108C178.575 64.2074 177.856 64.0057 177.015 64.0057C176.18 64.0057 175.461 64.2074 174.859 64.6108C174.256 65.0142 173.793 65.608 173.469 66.392C173.151 67.1761 172.992 68.1364 172.992 69.2727C172.992 70.4091 173.151 71.3693 173.469 72.1534C173.793 72.9375 174.256 73.5312 174.859 73.9347C175.461 74.3381 176.18 74.5398 177.015 74.5398C177.856 74.5398 178.575 74.3381 179.171 73.9347C179.773 73.5312 180.234 72.9375 180.552 72.1534C180.876 71.3693 181.038 70.4091 181.038 69.2727ZM192.032 60.5455V78H187.813V60.5455H192.032ZM201.132 78H194.68V60.5455H201.124C202.902 60.5455 204.433 60.8949 205.717 61.5938C207.007 62.2869 208.001 63.2869 208.7 64.5938C209.399 65.8949 209.749 67.4517 209.749 69.2642C209.749 71.0824 209.399 72.6449 208.7 73.9517C208.007 75.2585 207.016 76.2614 205.726 76.9602C204.436 77.6534 202.905 78 201.132 78ZM198.899 74.4034H200.97C201.947 74.4034 202.774 74.2386 203.45 73.9091C204.132 73.5739 204.646 73.0312 204.993 72.2812C205.345 71.5256 205.521 70.5199 205.521 69.2642C205.521 68.0085 205.345 67.0085 204.993 66.2642C204.641 65.5142 204.121 64.9744 203.433 64.6449C202.751 64.3097 201.911 64.142 200.911 64.142H198.899V74.4034Z" fill="white"/>
</svg>
